<?xml version="1.0" encoding="UTF-8" ?>
<!DOCTYPE svg PUBLIC "-//W3C//DTD SVG 1.1//EN" "http://www.w3.org/Graphics/SVG/1.1/DTD/svg11.dtd">
<svg width="203pt" height="203pt" viewBox="0 0 203 203" version="1.1" xmlns="http://www.w3.org/2000/svg">
<path fill="#ffdd16" d=" M 0.00 0.00 L 203.00 0.00 L 203.00 203.00 L 0.00 203.00 L 0.00 0.00 Z" />
<path fill="#ffffff" d=" M 3.23 3.13 C 68.83 3.16 134.44 3.11 200.04 3.16 C 200.10 68.75 200.05 134.35 200.07 199.94 C 134.47 200.24 68.86 199.99 3.25 200.07 C 3.20 134.42 3.23 68.77 3.23 3.13 Z" />
<path fill="#154795" d=" M 142.54 10.40 C 143.83 10.27 145.23 9.87 146.42 10.61 C 146.70 15.87 146.80 21.19 146.35 26.44 C 145.20 26.87 143.66 27.16 142.68 26.20 C 142.26 20.95 142.61 15.66 142.54 10.40 Z" />
<path fill="#ffdd16" d=" M 21.01 21.41 C 28.67 12.75 40.89 10.22 51.99 10.72 C 62.69 10.93 74.39 12.87 82.38 20.61 C 87.87 25.87 89.02 33.79 89.41 41.01 C 89.78 48.01 88.83 55.71 83.70 60.95 C 84.01 67.50 88.82 72.36 92.12 77.61 C 90.43 77.51 88.73 77.38 87.04 77.22 C 80.58 76.49 73.71 75.21 68.83 70.55 C 63.31 72.24 57.83 74.51 51.99 74.63 C 42.95 74.98 33.89 71.68 27.02 65.84 C 14.48 55.30 11.45 34.84 21.01 21.41 Z" />
<path fill="#154795" d=" M 111.90 16.77 C 112.89 16.08 113.92 15.45 114.99 14.89 C 118.71 18.90 121.57 23.65 124.69 28.13 C 123.58 28.80 122.50 29.51 121.38 30.15 C 118.14 25.74 114.87 21.36 111.90 16.77 Z" />
<path fill="#154795" d=" M 170.56 15.54 C 171.84 13.83 173.32 16.30 174.47 16.90 C 171.10 21.29 167.57 25.56 163.92 29.71 C 162.94 28.86 161.96 28.01 161.00 27.15 C 164.16 23.26 167.21 19.26 170.56 15.54 Z" />
<path fill="#154795" d=" M 34.06 27.08 C 41.30 18.22 55.59 16.43 64.77 23.23 C 73.20 29.36 75.00 43.07 67.75 50.78 C 64.82 54.03 59.29 54.24 56.61 50.55 C 54.48 52.47 52.02 54.35 49.02 54.38 C 43.82 54.94 39.06 50.18 39.10 45.06 C 38.74 38.95 42.41 31.87 48.92 30.86 C 51.68 30.19 54.30 31.44 56.39 33.15 C 56.92 30.11 60.63 31.47 62.80 30.99 C 62.30 36.75 60.40 42.40 60.77 48.20 C 62.66 49.11 64.28 47.64 65.08 46.06 C 67.95 40.67 67.73 33.23 63.24 28.77 C 59.34 24.79 53.29 23.82 47.98 24.82 C 39.89 26.56 33.36 34.62 34.20 43.02 C 34.34 49.86 38.80 56.71 45.54 58.61 C 51.81 60.34 58.34 58.58 64.44 56.96 C 64.94 58.71 65.47 60.45 65.97 62.20 C 56.96 64.69 46.24 66.67 38.03 60.91 C 27.11 53.74 25.01 36.57 34.06 27.08 Z" />
<path fill="#154795" d=" M 12.83 38.00 C 13.51 31.77 15.99 25.42 21.01 21.41 C 11.45 34.84 14.48 55.30 27.02 65.84 C 33.89 71.68 42.95 74.98 51.99 74.63 C 57.83 74.51 63.31 72.24 68.83 70.55 C 73.71 75.21 80.58 76.49 87.04 77.22 C 87.75 78.25 88.47 79.28 89.18 80.31 C 81.22 79.45 72.05 79.16 66.06 73.07 C 60.17 74.95 54.26 77.28 47.99 77.34 C 37.78 77.19 27.56 72.84 20.81 65.09 C 14.27 57.84 11.69 47.58 12.83 38.00 Z" />
<path fill="#154795" d=" M 115.06 44.02 C 125.60 34.84 140.61 31.27 154.18 34.50 C 169.48 37.93 182.42 50.09 186.77 65.15 C 192.00 81.81 186.12 100.91 172.85 112.14 C 169.80 109.14 165.92 106.81 163.74 103.05 C 166.94 91.67 169.87 79.93 169.24 68.01 C 168.79 61.08 166.75 53.45 160.88 49.14 C 156.58 45.91 150.88 45.93 145.82 46.89 C 137.64 48.47 129.52 50.98 122.34 55.30 C 118.61 57.60 114.93 60.66 113.62 65.02 C 113.85 66.58 114.67 68.12 116.10 68.89 C 120.04 71.17 124.91 70.87 128.88 73.08 C 129.61 77.92 129.03 82.83 129.14 87.71 C 137.19 89.99 146.60 88.79 152.69 82.67 C 156.28 79.84 157.45 75.33 159.18 71.33 C 160.40 72.34 160.71 73.55 160.11 74.95 C 157.96 82.35 152.00 88.67 144.48 90.65 C 139.46 92.19 134.15 91.57 129.14 90.40 C 129.14 92.04 129.15 93.67 129.16 95.30 C 122.80 99.18 116.51 103.17 110.41 107.46 C 103.54 99.28 99.33 88.80 99.41 78.05 C 99.29 65.13 105.18 52.35 115.06 44.02 Z" />
<path fill="#ffdd16" d=" M 49.37 37.48 C 51.96 36.16 55.39 38.05 55.36 41.04 C 55.61 44.54 53.01 49.24 48.93 48.29 C 43.96 46.65 45.40 39.43 49.37 37.48 Z" />
<path fill="#154795" d=" M 137.51 61.65 C 140.93 61.14 140.08 67.55 137.02 65.97 C 134.64 65.47 135.24 61.60 137.51 61.65 Z" />
<path fill="#ffdd16" d=" M 15.07 124.06 C 18.62 124.06 22.18 124.06 25.73 124.12 C 27.76 131.11 29.73 138.12 31.92 145.07 C 33.89 138.06 35.95 131.07 37.92 124.06 C 41.47 124.06 45.02 124.06 48.58 124.05 C 48.60 133.87 48.56 143.70 48.60 153.52 C 46.15 153.52 43.69 153.52 41.24 153.52 C 41.18 146.56 41.36 139.60 41.35 132.64 C 39.25 139.57 37.46 146.59 35.43 153.55 C 32.90 153.52 30.38 153.51 27.85 153.48 C 26.05 146.98 24.19 140.50 22.40 133.99 C 22.35 133.09 21.71 132.40 20.86 132.26 C 23.32 139.02 21.72 146.49 22.06 153.56 C 19.71 153.53 17.36 153.51 15.02 153.49 C 15.12 143.68 15.05 133.87 15.07 124.06 Z" />
<path fill="#ffdd16" d=" M 61.24 123.95 C 64.78 123.87 68.33 123.85 71.87 123.90 C 75.10 133.78 78.32 143.67 81.63 153.53 C 78.70 153.52 75.77 153.51 72.83 153.50 C 72.39 151.70 71.96 149.90 71.51 148.11 C 68.29 148.06 65.08 148.06 61.87 148.06 C 61.38 149.89 60.89 151.72 60.40 153.55 C 57.47 153.52 54.54 153.51 51.61 153.49 C 54.88 143.66 58.04 133.80 61.24 123.95 Z" />
<path fill="#ffdd16" d=" M 84.70 124.06 C 88.16 124.07 91.61 124.07 95.07 124.05 C 98.67 130.81 102.17 137.62 105.77 144.37 C 105.47 137.56 105.47 130.75 105.54 123.93 C 107.91 123.95 110.29 123.97 112.66 124.01 C 112.65 133.86 112.71 143.71 112.63 153.56 C 109.17 153.52 105.70 153.51 102.23 153.48 C 98.70 146.60 95.16 139.72 91.55 132.88 C 91.72 139.76 91.65 146.64 91.69 153.52 C 89.35 153.52 87.02 153.51 84.69 153.51 C 84.70 143.70 84.69 133.88 84.70 124.06 Z" />
<path fill="#ffdd16" d=" M 118.80 124.09 C 121.45 124.07 124.11 124.06 126.76 124.05 C 127.01 130.67 126.27 137.36 127.14 143.94 C 127.73 148.30 135.20 148.45 135.72 143.98 C 136.49 137.38 135.88 130.70 136.07 124.06 C 138.73 124.06 141.40 124.07 144.07 124.10 C 144.00 130.10 144.20 136.10 144.00 142.10 C 143.91 145.44 142.92 149.01 140.21 151.17 C 136.68 154.14 131.69 154.10 127.37 153.49 C 122.76 152.74 119.15 148.64 118.97 143.98 C 118.54 137.36 118.92 130.71 118.80 124.09 Z" />
<path fill="#ffdd16" d=" M 150.26 124.05 C 156.03 124.07 161.81 124.08 167.58 124.05 C 167.58 126.21 167.59 128.37 167.60 130.52 C 164.43 130.51 161.26 130.51 158.10 130.53 C 158.12 132.04 158.15 133.56 158.18 135.08 C 161.03 135.07 163.87 135.05 166.72 135.01 C 166.75 137.18 166.78 139.34 166.81 141.51 C 163.92 141.51 161.02 141.51 158.13 141.51 C 158.13 143.30 158.14 145.09 158.15 146.88 C 161.30 146.87 164.45 146.88 167.60 146.94 C 167.59 149.13 167.59 151.33 167.60 153.52 C 161.81 153.51 156.02 153.51 150.24 153.52 C 150.27 143.70 150.24 133.88 150.26 124.05 Z" />
<path fill="#ffdd16" d=" M 172.70 124.06 C 175.35 124.01 178.00 123.97 180.66 123.97 C 180.68 131.67 180.65 139.37 180.68 147.07 C 184.48 147.06 188.29 147.06 192.09 147.10 C 192.06 149.24 192.04 151.38 192.01 153.52 C 185.56 153.50 179.12 153.53 172.68 153.50 C 172.71 143.69 172.68 133.87 172.70 124.06 Z" />
<path fill="#ffffff" d=" M 63.53 141.44 C 64.63 137.39 65.65 133.32 66.74 129.26 C 67.63 133.35 68.66 137.41 69.76 141.44 C 67.69 141.44 65.61 141.44 63.53 141.44 Z" />
<path fill="#154795" d=" M 122.78 161.60 C 123.26 161.55 124.23 161.44 124.72 161.39 C 130.65 169.96 136.24 178.77 142.21 187.31 C 141.73 178.73 142.29 170.15 141.96 161.57 C 142.69 161.56 143.42 161.55 144.16 161.53 C 144.13 171.31 144.13 181.09 144.16 190.87 C 142.87 190.70 141.44 190.50 140.87 189.14 C 135.44 181.01 130.00 172.88 124.63 164.71 C 124.89 173.40 124.76 182.08 124.78 190.77 C 124.28 190.72 123.27 190.62 122.76 190.57 C 122.83 180.92 122.81 171.26 122.78 161.60 Z" />
<path fill="#154795" d=" M 53.87 161.53 C 59.59 161.70 65.98 160.59 71.02 163.95 C 76.08 167.46 76.84 174.43 75.81 180.04 C 75.23 183.96 72.75 187.58 69.11 189.23 C 64.34 191.45 58.95 190.52 53.88 190.66 C 53.87 180.95 53.89 171.24 53.87 161.53 Z" />
<path fill="#154795" d=" M 82.48 161.24 L 84.41 161.65 C 84.99 168.75 84.11 175.92 84.82 183.01 C 86.17 191.46 100.69 191.56 101.99 183.06 C 102.66 176.03 101.95 168.95 102.30 161.90 C 102.80 161.71 103.78 161.32 104.28 161.12 C 104.23 168.46 104.65 175.83 104.08 183.15 C 102.92 191.54 91.15 193.64 85.49 188.50 C 83.10 186.37 82.47 183.03 82.46 179.98 C 82.42 173.73 82.45 167.49 82.48 161.24 Z" />
<path fill="#154795" d=" M 152.33 190.69 C 152.37 180.96 152.36 171.23 152.34 161.50 C 157.65 161.55 162.96 161.52 168.27 161.54 L 168.27 163.49 C 163.62 163.50 158.97 163.50 154.32 163.48 C 154.33 167.14 154.33 170.79 154.33 174.45 C 158.71 174.44 163.10 174.45 167.49 174.42 L 167.60 176.32 C 163.17 176.33 158.75 176.34 154.33 176.31 C 154.33 180.48 154.33 184.65 154.33 188.82 C 159.08 188.80 163.83 188.76 168.58 188.84 L 168.02 190.42 C 162.84 191.07 157.55 190.49 152.33 190.69 Z" />
<path fill="#154795" d=" M 170.85 161.55 C 177.92 161.52 185.00 161.52 192.08 161.55 L 192.08 163.48 C 188.88 163.50 185.69 163.50 182.49 163.48 C 182.49 172.59 182.54 181.71 182.47 190.82 L 180.45 190.69 C 180.46 181.62 180.44 172.55 180.47 163.48 C 177.26 163.50 174.05 163.50 170.85 163.48 L 170.85 161.55 Z" />
<path fill="#ffffff" d=" M 56.14 163.29 C 60.82 163.44 66.18 162.79 70.07 165.98 C 73.91 169.09 74.24 174.52 73.69 179.07 C 73.32 182.72 71.09 186.24 67.66 187.71 C 64.04 189.31 59.99 188.81 56.15 188.91 C 56.13 180.37 56.14 171.83 56.14 163.29 Z" />
</svg>
