<?xml version="1.0" standalone="no"?>
<!DOCTYPE svg PUBLIC "-//W3C//DTD SVG 20010904//EN"
 "http://www.w3.org/TR/2001/REC-SVG-20010904/DTD/svg10.dtd">
<svg version="1.0" xmlns="http://www.w3.org/2000/svg"
 width="185.000000pt" height="208.000000pt" viewBox="0 0 185.000000 208.000000"
 preserveAspectRatio="xMidYMid meet">
<metadata>
Created by potrace 1.12, written by Peter Selinger 2001-2015
</metadata>
<g transform="translate(0.000000,208.000000) scale(0.100000,-0.100000)"
fill="#000000" stroke="none">
<path d="M911 2046 c-8 -9 -11 -61 -9 -162 l3 -149 35 0 35 0 3 149 c3 153 -2
176 -38 176 -10 0 -23 -6 -29 -14z"/>
<path d="M317 1942 c-10 -10 -17 -22 -17 -26 0 -15 163 -238 178 -243 18 -7
46 9 50 29 3 14 -149 235 -172 250 -16 11 -21 10 -39 -10z"/>
<path d="M1376 1844 c-53 -64 -96 -122 -96 -128 0 -17 21 -36 41 -36 14 0 176
181 203 228 9 15 -20 52 -40 52 -7 0 -56 -52 -108 -116z"/>
<path d="M787 1580 c-185 -33 -335 -110 -471 -239 -122 -117 -203 -254 -247
-416 -18 -64 -22 -109 -23 -220 0 -164 20 -258 84 -390 36 -74 111 -186 129
-193 4 -1 57 31 117 71 60 41 142 93 182 117 l72 42 0 50 0 51 38 -6 c215 -35
350 1 466 122 58 62 115 166 119 218 4 52 -25 31 -53 -39 -54 -133 -158 -219
-307 -254 -71 -17 -185 -14 -237 6 l-26 10 0 144 0 144 -27 10 c-16 6 -66 21
-112 32 -106 27 -137 42 -156 81 -68 130 267 341 640 404 118 20 168 15 252
-26 66 -32 114 -81 151 -155 78 -155 77 -460 -4 -764 -14 -52 -30 -117 -37
-144 l-12 -49 90 -84 90 -83 73 76 c248 260 312 656 157 981 -46 98 -85 154
-169 242 -166 173 -363 259 -606 266 -69 2 -147 0 -173 -5z"/>
<path d="M770 1005 c-10 -12 -10 -21 -2 -40 21 -45 77 -23 70 27 -4 28 -48 37
-68 13z"/>
</g>
</svg>
